<?xml version="1.0" standalone="no"?>
<!DOCTYPE svg PUBLIC "-//W3C//DTD SVG 20010904//EN"
 "http://www.w3.org/TR/2001/REC-SVG-20010904/DTD/svg10.dtd">
<svg version="1.0" xmlns="http://www.w3.org/2000/svg"
 width="640.000000pt" height="960.000000pt" viewBox="0 0 640.000000 960.000000"
 preserveAspectRatio="xMidYMid meet">

<g transform="translate(0.000000,960.000000) scale(0.100000,-0.100000)"
fill="#000000" stroke="none">
<path d="M0 4800 l0 -4800 3200 0 3200 0 0 4800 0 4800 -3200 0 -3200 0 0
-4800z m1268 3958 c7 -7 12 -15 12 -20 0 -12 -28 2 -34 18 -7 17 6 18 22 2z
m59 -60 c13 -12 23 -29 23 -39 0 -9 7 -22 15 -29 11 -9 12 -15 2 -25 -10 -11
-15 -10 -30 6 -22 23 -21 23 -43 2 -16 -16 -16 -16 -9 7 4 14 14 29 22 33 9 6
11 13 5 20 -13 17 -22 47 -15 47 4 0 17 -10 30 -22z m-122 -117 c-9 -16 -25
-3 -18 15 4 10 9 12 15 6 6 -6 7 -15 3 -21z m-50 -151 c-4 -26 -10 -38 -15
-30 -5 9 -9 9 -14 1 -4 -6 -12 -8 -18 -5 -7 5 -5 11 5 19 14 10 24 35 26 70 1
5 6 4 12 -2 7 -7 8 -27 4 -53z m55 24 c0 -8 -5 -12 -10 -9 -6 4 -8 11 -5 16 9
14 15 11 15 -7z m90 -89 c12 -15 9 -16 -33 -11 -59 7 -64 -12 -12 -44 41 -25
45 -35 10 -26 -20 5 -23 3 -18 -11 4 -10 11 -21 17 -25 6 -4 7 -10 3 -14 -4
-4 -16 1 -28 11 -16 15 -24 17 -37 8 -14 -9 -23 -6 -46 16 -21 19 -27 21 -23
8 6 -15 4 -16 -13 -7 -21 11 -27 45 -10 55 17 10 11 25 -10 25 -23 0 -27 15
-5 24 21 8 45 -3 45 -20 0 -22 13 -16 34 15 11 16 25 27 32 24 7 -2 15 0 19 6
7 13 54 -8 75 -34z m-311 -53 c7 -35 10 -66 8 -69 -5 -5 -37 126 -37 149 1 28
17 -18 29 -80z m301 13 c20 -24 6 -28 -15 -5 -10 11 -13 20 -8 20 6 0 16 -7
23 -15z m90 -100 c11 -13 15 -13 23 -3 6 9 7 7 3 -6 -4 -10 -1 -26 6 -34 11
-13 11 -14 -2 -7 -23 13 -60 48 -60 57 0 13 17 9 30 -7z m-241 -26 c-5 -11 -7
-29 -4 -40 6 -19 5 -20 -16 -9 -20 11 -21 10 -16 -11 6 -21 4 -21 -18 6 -31
38 -31 52 -2 50 12 -1 28 7 35 17 17 24 36 13 21 -13z m51 4 c0 -26 -1 -26
-14 -8 -14 20 -12 35 5 35 5 0 9 -12 9 -27z m235 -103 c-9 -14 -25 5 -25 30 0
12 3 12 16 -2 9 -9 13 -21 9 -28z m-335 4 c0 -8 -4 -12 -10 -9 -5 3 -10 10
-10 16 0 5 5 9 10 9 6 0 10 -7 10 -16z m462 -35 c9 -5 25 -9 36 -9 22 0 72
-36 72 -51 0 -6 -4 -8 -8 -5 -4 2 -7 -15 -6 -40 2 -48 -11 -51 -21 -4 -4 17
-10 30 -14 30 -4 0 -16 8 -27 18 -26 25 -71 36 -77 19 -3 -6 -6 -2 -6 10 -1
12 -5 25 -11 28 -5 3 -10 11 -10 16 0 10 43 3 72 -12z m-26 -58 c-3 -4 1 -16
8 -27 14 -19 11 -44 -6 -44 -5 0 -6 4 -3 10 3 5 1 19 -5 30 -10 18 -7 40 6 40
3 0 3 -4 0 -9z m278 -7 c9 -3 16 -10 16 -15 0 -5 -11 -4 -25 3 -27 12 -50 1
-60 -31 -3 -10 -17 -23 -31 -30 -29 -13 -28 -12 5 42 23 37 53 47 95 31z
m-200 -59 c3 -8 1 -15 -4 -15 -6 0 -10 7 -10 15 0 8 2 15 4 15 2 0 6 -7 10
-15z m-374 -30 c0 -9 -7 -18 -15 -22 -9 -3 -22 -18 -31 -34 -8 -16 -20 -28
-26 -26 -14 2 -17 -28 -5 -63 8 -24 7 -24 -9 -8 -38 37 -11 126 47 155 32 17
39 16 39 -2z m3622 -127 c-8 -8 -9 -4 -5 13 4 13 8 18 11 10 2 -7 -1 -18 -6
-23z m-12 -38 c0 -5 -2 -10 -4 -10 -3 0 -8 5 -11 10 -3 6 -1 10 4 10 6 0 11
-4 11 -10z m-3633 -115 c13 -60 22 -74 79 -135 46 -49 70 -67 83 -63 20 5 37
-12 22 -22 -6 -3 -8 -12 -4 -20 6 -18 -8 -20 -26 -2 -11 10 -12 4 -9 -29 2
-26 -1 -40 -7 -38 -39 15 -103 53 -98 58 4 3 19 6 34 6 33 0 59 9 59 21 0 13
-118 126 -162 156 -40 27 -51 41 -19 23 28 -15 31 -13 26 18 -15 95 -16 117
-5 106 6 -6 18 -42 27 -79z m629 50 c8 -33 -1 -43 -16 -16 -6 12 -20 21 -30
21 -11 0 -20 5 -20 10 0 6 13 10 30 10 23 0 31 -5 36 -25z m-55 -5 c10 -6 19
-16 19 -22 0 -9 -3 -9 -12 0 -7 7 -23 12 -36 12 -13 0 -20 4 -17 10 8 13 21
13 46 0z m53 -56 c9 -24 2 -26 -12 -4 -7 11 -8 20 -3 20 5 0 12 -7 15 -16z
m46 -108 c0 -5 -13 3 -30 19 -16 16 -30 33 -30 39 0 5 14 -3 30 -19 17 -16 30
-33 30 -39z m2227 -4 c-22 -25 -21 -48 3 -74 17 -18 29 -68 16 -68 -6 0 -66
92 -66 100 0 13 41 60 52 60 6 0 4 -8 -5 -18z m-2667 -62 c0 -5 -4 -10 -10
-10 -5 0 -10 5 -10 10 0 6 5 10 10 10 6 0 10 -4 10 -10z m2979 1 c12 -8 9 -12
-13 -22 -25 -12 -27 -17 -22 -49 5 -32 4 -34 -9 -16 -20 26 -19 55 2 78 18 20
22 21 42 9z m176 2 c-11 -3 -37 -19 -58 -35 -21 -17 -41 -28 -44 -24 -15 15
66 67 102 65 l20 -1 -20 -5z m55 -13 c8 -5 12 -11 9 -14 -3 -3 -14 1 -25 9
-21 16 -8 20 16 5z m-170 -9 c0 -5 -10 -13 -22 -17 -13 -3 -31 -13 -41 -22 -9
-8 -20 -13 -23 -9 -3 3 11 17 33 31 42 27 53 31 53 17z m139 -42 c-25 -16 -32
-9 -13 12 12 13 20 16 22 9 3 -7 -2 -16 -9 -21z m-569 -17 c0 -13 57 -31 68
-20 6 6 11 2 15 -11 6 -24 -2 -26 -37 -9 -44 20 -137 -35 -108 -64 11 -11 72
11 72 27 0 12 21 25 41 25 5 0 3 -10 -6 -23 -8 -13 -12 -27 -8 -30 3 -4 2 -7
-4 -7 -6 0 -9 -8 -6 -19 3 -13 17 -20 45 -24 50 -7 55 -12 35 -35 -32 -35 -14
-72 35 -72 25 0 27 2 18 26 -13 32 -13 44 0 44 6 0 10 -7 10 -15 0 -8 3 -15 8
-15 4 0 15 -20 25 -45 22 -52 30 -55 127 -56 70 -1 131 18 153 46 4 6 10 5 16
-4 5 -8 16 -11 30 -6 12 4 21 2 21 -4 0 -13 62 -15 76 -2 16 15 54 23 54 12 0
-6 -5 -10 -12 -9 -6 2 -14 -5 -16 -16 -4 -20 42 -65 67 -66 8 0 36 -23 63 -52
43 -47 48 -50 48 -28 0 32 14 14 27 -35 33 -122 115 -361 130 -376 5 -5 38
-11 72 -13 34 -2 64 -6 68 -10 18 -18 -103 -191 -144 -207 -31 -11 -43 -11
-43 0 0 5 12 12 28 16 29 6 74 55 86 93 4 12 12 22 17 22 6 0 7 5 4 10 -4 6
-10 8 -15 5 -5 -3 -31 5 -57 19 -58 29 -161 45 -173 26 -8 -14 -24 27 -35 95
-5 30 -9 36 -16 24 -4 -9 -8 -29 -8 -45 0 -16 -3 -43 -6 -60 -6 -26 -3 -32 13
-36 21 -6 28 -53 10 -75 -11 -14 -1 -36 12 -28 14 9 23 -16 11 -28 -19 -19
-12 -25 39 -32 29 -4 47 -11 44 -17 -6 -9 -83 -4 -126 8 -15 5 -17 -1 -12 -45
5 -43 3 -50 -15 -56 -21 -6 -26 -29 -21 -98 1 -15 -6 -61 -16 -103 -16 -66
-16 -86 -6 -172 7 -53 12 -123 12 -154 0 -65 16 -120 29 -99 14 22 23 -23 17
-82 -3 -29 -3 -44 0 -34 3 9 10 15 14 12 5 -3 22 2 36 12 l28 18 -27 -46 c-26
-44 -27 -50 -18 -112 5 -36 15 -76 22 -88 7 -13 13 -26 14 -29 1 -13 48 -70
57 -70 10 0 37 -29 38 -41 0 -3 -16 -12 -35 -19 -26 -10 -34 -18 -29 -29 3 -9
13 -37 21 -63 9 -27 20 -48 26 -48 5 0 7 -7 3 -15 -3 -8 -1 -15 4 -15 5 0 12
-16 16 -35 3 -19 12 -40 20 -46 11 -9 16 -5 26 22 l12 34 8 -39 c9 -41 -5
-106 -23 -106 -5 0 -9 17 -9 38 0 26 -3 33 -9 23 -8 -12 -12 -13 -26 -1 -9 7
-14 19 -11 26 3 7 -2 18 -10 24 -8 7 -14 18 -14 25 0 15 -38 50 -46 42 -6 -6
13 -75 26 -92 5 -5 11 -27 15 -47 4 -21 11 -38 17 -38 5 0 6 -4 3 -10 -3 -5 2
-32 11 -58 15 -42 16 -54 4 -81 -7 -17 -15 -29 -18 -26 -10 9 -32 -17 -32 -38
0 -20 0 -20 15 -1 8 10 15 15 15 11 0 -14 -32 -71 -67 -116 -39 -51 -41 -72
-11 -86 12 -6 23 -16 26 -22 4 -13 -3 -17 -49 -27 -34 -7 -57 -71 -31 -86 10
-5 12 -10 5 -10 -15 0 -35 -70 -24 -84 12 -16 22 -76 13 -76 -5 0 -13 5 -20
12 -17 17 -35 -35 -36 -102 -2 -99 16 -244 39 -316 4 -12 -3 -52 -14 -91 -32
-109 -23 -301 16 -341 21 -22 26 -76 9 -115 -8 -21 -18 -64 -22 -96 -6 -56 -5
-61 21 -85 16 -15 26 -28 24 -30 -2 -2 -27 -14 -56 -25 -82 -32 -136 -35 -268
-12 -121 20 -166 19 -185 -4 -8 -9 -21 -10 -48 -4 -23 5 -38 4 -40 -2 -2 -5
-7 -7 -12 -4 -4 2 -21 -2 -38 -10 -27 -14 -38 -32 -63 -100 -6 -16 -7 -14 -8
11 -1 25 -9 35 -41 53 -24 14 -48 20 -60 16 -11 -4 -20 -2 -20 4 0 16 -137 13
-194 -4 -58 -18 -66 -18 -66 -5 0 6 12 15 26 20 14 6 22 14 19 20 -3 6 4 10
16 10 12 0 19 3 15 8 -4 4 -56 9 -114 12 l-107 5 -3 58 -3 57 98 0 c138 0 198
12 296 60 122 59 124 63 87 136 -16 32 -30 62 -30 67 0 4 14 7 30 7 19 0 30 5
30 14 0 8 7 22 15 30 9 9 18 39 21 68 3 29 10 63 16 75 16 33 -3 49 -63 56
-59 7 -54 5 -63 37 -7 23 -6 24 8 7 12 -16 22 -18 57 -12 90 15 111 71 107
280 -2 85 1 141 6 137 5 -3 6 2 3 12 -4 10 -12 69 -17 132 -11 127 -1 197 31
217 11 7 19 20 19 29 0 16 -10 18 -70 18 -61 0 -74 3 -95 24 -23 23 -45 82
-45 120 0 10 -9 35 -19 55 -11 20 -27 62 -36 94 -21 75 -29 78 -117 42 -13 -5
-18 -2 -18 8 0 13 -6 14 -30 7 -30 -9 -43 3 -15 14 18 7 20 40 3 54 -9 7 -17
6 -26 -4 -12 -13 -8 -18 10 -15 4 0 5 -6 2 -13 -3 -9 -12 -12 -21 -9 -11 4
-14 2 -9 -5 4 -7 1 -15 -8 -18 -9 -3 -16 -15 -16 -26 0 -17 -3 -18 -14 -9 -11
10 -15 8 -19 -6 -3 -14 -6 -12 -16 12 -34 87 -110 199 -138 203 -25 4 -83 -49
-83 -76 0 -28 -18 -39 -72 -44 -46 -5 -47 -5 -50 26 -2 24 -8 32 -26 34 -29 4
-88 -23 -101 -46 -5 -9 -13 -14 -17 -10 -4 4 -1 14 6 23 8 9 8 15 2 15 -6 0
-14 -5 -17 -11 -5 -7 -14 -4 -27 8 -19 17 -21 17 -58 -5 -41 -23 -80 -29 -80
-11 0 6 9 8 20 4 11 -3 20 -2 20 3 0 6 -5 12 -11 14 -7 2 -5 9 5 17 14 11 16
11 16 -3 0 -9 1 -16 3 -16 8 1 75 27 91 36 14 9 17 18 12 37 -5 22 -13 26 -61
32 -75 10 -224 -12 -252 -38 -12 -10 -26 -16 -32 -12 -6 3 -18 0 -26 -8 -13
-13 -12 -16 2 -22 14 -5 15 -8 4 -15 -10 -5 -12 -20 -8 -49 3 -23 3 -41 1 -41
-2 0 -19 16 -38 36 -35 37 -50 70 -36 79 4 3 10 -4 13 -15 7 -28 25 -25 33 5
3 14 11 25 18 25 6 0 4 4 -4 10 -9 5 -19 5 -27 -2 -7 -6 -13 -7 -13 -3 0 4 8
13 17 20 16 12 13 15 -22 29 -31 13 -40 14 -47 4 -6 -10 -8 -8 -8 4 0 22 -36
42 -58 32 -9 -4 -19 -8 -22 -8 -16 -4 -30 -20 -30 -35 0 -26 -65 -95 -80 -86
-8 5 -11 4 -6 -3 10 -16 -29 -34 -59 -26 -19 5 -25 2 -25 -10 0 -9 -5 -15 -12
-14 -24 6 -56 -74 -57 -139 -1 -34 -5 -65 -11 -68 -5 -3 -26 -1 -46 4 -75 21
-89 -20 -62 -180 9 -60 9 -78 -5 -122 -14 -44 -15 -70 -7 -172 6 -66 12 -133
15 -150 3 -16 7 -51 9 -77 5 -50 16 -77 40 -98 20 -16 20 -50 1 -76 -15 -21
-20 -44 -7 -44 19 1 35 21 37 47 1 15 3 38 3 51 2 19 4 21 21 10 15 -9 17 -16
9 -25 -5 -7 -8 -20 -4 -28 3 -9 2 -13 -4 -10 -6 3 -10 -4 -10 -16 0 -23 -34
-59 -57 -59 -7 0 -13 -4 -13 -10 0 -5 5 -10 10 -10 17 0 11 -18 -9 -25 -19 -6
-19 -24 -3 -65 6 -16 9 -39 17 -130 2 -30 2 -47 -1 -37 -3 10 -13 17 -22 15
-12 -2 -16 -12 -14 -33 2 -17 5 -31 7 -33 1 -1 21 0 44 4 38 6 41 9 41 37 0
23 3 28 11 20 15 -15 2 -82 -17 -90 -7 -3 -14 -11 -14 -19 0 -8 -8 -22 -19
-33 -16 -16 -35 -91 -22 -91 2 0 13 8 24 18 20 17 20 17 2 -15 -11 -18 -24
-33 -29 -33 -5 0 -7 -3 -3 -6 3 -4 -1 -20 -9 -36 -9 -16 -20 -57 -25 -91 -11
-66 -19 -77 -61 -77 -24 0 -28 -4 -28 -31 0 -17 -4 -28 -10 -24 -5 3 -10 14
-10 23 0 15 -12 17 -94 17 -60 0 -99 5 -108 13 -17 14 -136 10 -147 -5 -8 -12
-61 -15 -61 -4 0 5 -46 14 -102 21 -77 10 -115 10 -157 1 -31 -6 -67 -13 -81
-15 -27 -4 -194 -8 -296 -7 l-61 1 -6 38 c-4 20 -4 47 -1 60 6 19 13 22 55 22
31 0 53 5 61 15 34 41 41 45 60 40 22 -8 72 21 63 35 -10 16 15 11 31 -5 14
-13 14 -15 0 -15 -18 0 -20 -13 -6 -40 13 -24 78 -20 144 9 27 11 53 21 59 21
6 0 32 14 58 31 56 35 68 68 94 243 20 133 13 226 -17 234 -12 3 -17 10 -14
19 4 9 1 13 -6 10 -7 -2 -12 -10 -11 -16 7 -28 -26 0 -63 55 -13 19 -24 39
-24 45 0 6 -16 40 -35 78 -34 66 -45 120 -25 122 6 1 16 2 23 3 6 1 11 7 10
13 -1 6 11 26 27 43 25 27 30 29 31 14 0 -15 2 -15 6 -4 3 8 12 19 19 23 8 4
14 14 14 21 0 7 11 19 25 26 14 8 35 29 47 48 18 30 20 41 12 100 -5 37 -8
109 -8 160 0 65 -4 91 -12 88 -6 -2 -17 0 -25 4 -8 5 -19 4 -26 -2 -14 -11
-17 1 -15 52 1 14 -1 19 -4 13 -17 -39 -45 19 -35 73 4 21 14 50 21 64 l14 25
7 -25 c7 -24 7 -24 9 5 1 26 3 27 10 10 7 -17 9 -14 9 13 1 18 6 42 12 54 11
21 -5 78 -22 78 -14 0 -10 130 7 195 21 82 32 135 28 135 -2 0 -15 -21 -28
-47 -13 -27 -31 -57 -40 -68 -15 -19 -15 -19 -9 5 3 14 10 31 16 38 6 8 6 12
-3 12 -8 0 -10 12 -5 43 9 56 -7 39 -30 -31 -30 -92 -25 -51 6 56 30 103 31
126 4 115 -9 -3 -15 1 -15 10 0 20 17 31 23 15 6 -15 8 -9 30 82 10 43 12 69
5 77 -10 12 18 33 44 33 15 0 42 39 34 48 -3 3 -6 -1 -6 -9 0 -8 -9 -1 -19 14
-10 16 -21 28 -25 28 -3 -1 -14 -1 -23 0 -17 0 -17 1 -1 7 15 6 13 10 -12 27
-16 11 -35 32 -41 47 -6 14 -19 34 -28 43 -23 20 -17 57 18 109 19 30 26 53
27 102 2 35 9 78 17 96 8 19 15 71 16 123 1 50 4 107 7 128 4 26 2 37 -7 37
-10 0 -10 3 -1 12 17 17 15 47 -3 54 -19 8 -19 34 0 34 19 0 19 10 1 24 -13 9
-12 16 5 50 25 52 24 55 -10 62 -27 6 -28 7 -13 25 9 10 22 19 29 19 7 0 13
11 13 24 0 13 6 29 14 35 8 7 12 21 9 31 -6 24 -5 24 -48 1 -21 -11 -48 -17
-69 -14 -32 3 -37 0 -55 -34 l-20 -38 -1 67 c0 36 -3 75 -7 85 -7 17 -6 17 11
1 9 -10 19 -18 21 -18 2 0 2 29 0 64 -4 76 -23 122 -50 119 -10 -1 -32 8 -48
19 -22 16 -26 23 -15 29 11 7 11 9 0 9 -8 0 -25 -9 -39 -20 -14 -11 -32 -20
-39 -20 -23 0 -16 -13 23 -47 l38 -32 -38 9 c-54 12 -147 51 -147 61 0 13 11
11 31 -7 33 -30 43 -4 11 30 -70 75 -89 128 -57 160 8 8 15 20 15 27 0 7 3 9
7 6 3 -4 12 -2 19 4 8 7 14 7 19 -1 13 -20 24 1 13 25 -6 13 -8 31 -4 40 5 13
12 10 40 -19 25 -24 41 -33 56 -29 12 3 20 1 20 -6 0 -7 -5 -9 -12 -5 -7 4 -8
3 -4 -4 17 -28 148 6 162 42 3 8 12 12 20 9 8 -3 21 0 29 7 18 15 19 7 4 -21
-9 -18 -8 -20 13 -17 13 2 25 6 28 9 3 4 25 9 50 13 l45 7 -30 -17 -30 -18 67
-12 c36 -7 97 -26 133 -43 l67 -31 32 20 c54 35 157 80 196 86 32 5 38 10 35
29 -1 16 2 22 11 18 8 -3 11 -9 8 -14 -3 -5 0 -9 5 -9 6 0 11 -6 11 -14 0 -8
15 -27 34 -43 48 -40 56 -111 46 -388 -1 -38 0 -117 4 -174 5 -88 10 -108 28
-128 17 -19 19 -25 8 -38 -10 -12 -16 -13 -26 -4 -9 7 -14 7 -14 1 0 -5 7 -15
15 -22 8 -7 15 -19 15 -27 0 -10 10 -13 35 -10 19 2 38 6 41 10 10 10 -7 47
-22 47 -8 0 -14 5 -14 10 0 34 54 -12 64 -55 8 -36 70 -94 109 -102 31 -6 47
-23 21 -23 -16 0 -16 -1 0 -19 25 -28 36 -84 24 -130 -9 -34 -7 -45 15 -83 27
-47 41 -106 31 -132 -9 -23 -27 -20 -19 4 6 17 -13 58 -40 86 -5 5 -36 9 -67
7 -47 -3 -61 0 -78 17 -18 18 -21 18 -26 5 -6 -14 38 -91 61 -107 5 -4 6 -10
2 -14 -4 -4 -8 -5 -10 -3 -36 51 -60 79 -70 78 -9 0 -9 -2 0 -5 7 -3 9 -13 6
-22 -3 -9 -2 -14 2 -9 11 10 38 -54 27 -65 -5 -5 -13 2 -19 14 -33 69 -43 99
-38 108 4 6 -1 17 -9 26 -9 9 -14 20 -11 25 4 5 -1 6 -10 3 -9 -4 -14 -13 -11
-21 3 -8 6 -19 6 -24 0 -6 5 -7 12 -3 6 4 8 3 5 -3 -3 -5 0 -26 7 -47 9 -27
10 -52 3 -91 -8 -48 -5 -66 18 -142 15 -49 33 -97 39 -108 25 -42 56 -164 61
-245 8 -117 32 -161 69 -125 14 15 16 15 16 1 0 -17 17 -22 108 -30 35 -3 71
-10 80 -15 22 -11 180 -31 253 -31 30 0 102 9 160 19 79 15 148 19 284 19 218
-1 245 3 245 40 0 15 -8 49 -17 75 -16 46 -16 49 1 82 20 36 36 46 36 21 0 -8
-7 -16 -15 -20 -32 -12 -13 -23 39 -22 54 0 54 1 65 38 12 39 31 60 31 34 0
-8 -6 -27 -12 -42 -9 -20 -10 -28 -1 -31 7 -3 4 -17 -10 -43 l-22 -38 29 -27
c16 -15 41 -29 55 -31 14 -2 36 -7 49 -9 20 -5 23 -3 17 14 -3 11 -2 22 3 25
5 3 8 18 7 33 -2 30 -44 155 -56 163 -3 3 -6 26 -5 52 2 45 1 47 -21 44 -36
-7 -43 -15 -43 -49 -1 -29 -2 -30 -14 -14 -7 9 -18 17 -23 17 -6 0 -16 7 -23
16 -7 8 -23 14 -34 12 -12 -1 -22 1 -23 6 -1 4 -15 20 -32 35 -29 26 -44 60
-20 46 5 -4 26 1 45 10 29 13 34 21 34 49 0 39 34 68 69 59 12 -3 21 -1 21 6
0 6 5 11 11 11 8 0 8 -5 -1 -15 -8 -9 -10 -28 -6 -49 5 -28 10 -33 27 -29 11
3 26 18 34 32 7 15 21 33 29 40 9 8 16 22 16 32 0 10 5 21 12 25 11 7 9 -28
-7 -103 l-7 -31 37 8 c28 6 38 5 42 -6 3 -8 9 -12 13 -9 10 6 0 55 -11 55 -13
0 -11 33 3 67 6 15 10 37 9 48 -2 17 0 18 9 5 8 -12 9 -9 4 13 -6 28 1 33 26
17 13 -8 13 -13 -2 -40 -13 -23 -15 -37 -8 -56 6 -14 10 -30 10 -35 0 -16 -18
-10 -23 9 -3 9 -4 6 -3 -8 2 -27 22 -68 29 -60 2 3 19 41 37 85 19 44 47 94
62 110 15 17 28 37 28 44 0 7 9 24 20 38 24 30 26 45 5 37 -21 -8 -19 13 3 26
11 8 13 13 5 16 -8 4 -9 13 -4 27 12 33 3 49 -20 37 -22 -13 -26 2 -6 22 8 7
12 20 9 30 -2 10 0 18 6 18 16 0 -16 57 -46 80 -15 13 -34 19 -46 16 -13 -3
-29 3 -43 16 -21 19 -27 21 -56 10 -19 -7 -39 -12 -47 -12 -7 0 -29 -12 -49
-27 -63 -49 -103 -74 -108 -69 -3 3 9 17 27 32 18 15 38 34 45 41 8 7 18 13
24 13 6 0 10 5 8 12 -1 7 22 18 53 27 30 8 57 18 58 23 6 14 32 9 32 -7 0 -8
8 -15 18 -15 26 1 52 25 52 48 0 11 7 27 15 35 16 17 10 27 -17 27 -16 0 -19
6 -16 38 2 30 7 38 26 40 24 4 27 14 12 43 -8 13 -7 19 0 19 10 0 19 17 34 68
7 20 4 22 -28 22 -19 0 -51 8 -70 17 -28 13 -34 21 -30 37 5 23 -37 76 -61 76
-8 0 -15 9 -15 19 0 11 -3 27 -7 37 -3 10 12 -1 35 -24 38 -38 62 -52 62 -36
0 3 -14 19 -31 35 -26 24 -30 34 -25 60 3 16 13 37 21 45 20 20 19 23 -5 17
-11 -3 -20 -11 -20 -18 0 -16 -55 -45 -85 -45 -25 0 -45 18 -45 39 0 26 -16
42 -33 35 -9 -3 -17 -14 -17 -23 0 -25 -11 -33 -26 -20 -16 13 -34 4 -34 -17
0 -8 -4 -14 -9 -14 -5 0 -9 19 -9 42 -1 58 -18 68 -116 69 -65 1 -75 3 -51 10
17 5 60 10 98 11 57 1 67 3 62 17 -3 10 3 20 17 26 25 12 38 38 14 29 -9 -3
-16 -1 -16 5 0 6 -9 11 -19 11 -11 0 -27 7 -35 16 -15 14 -20 11 -17 -8 0 -4
-6 -5 -13 -2 -17 7 -11 30 11 38 12 5 12 8 -3 23 -11 11 -13 18 -5 21 6 2 11
8 11 14 0 6 -7 8 -15 4 -8 -3 -15 -1 -15 4 0 13 16 13 41 0 15 -9 21 -7 26 6
6 15 7 15 18 1 8 -12 42 -17 146 -24 75 -4 149 -5 165 -2 16 4 23 7 17 8 -21
2 -14 15 17 33 38 22 38 31 -2 46 -17 6 -30 14 -27 16 8 8 99 -6 99 -15 0 -5
-7 -9 -15 -9 -16 0 -20 -35 -9 -64 8 -20 38 -21 58 -1 12 12 13 22 5 42 -5 14
-6 29 -2 32 15 11 33 50 25 55 -12 7 -29 -7 -35 -29 -4 -18 -5 -18 -6 3 -1 18
-7 22 -33 22 l-33 1 25 14 c28 16 18 19 -45 15 -22 -1 -43 -7 -47 -13 -5 -8
-14 -5 -28 10 -27 29 -26 37 10 66 17 14 30 31 30 37 0 19 48 60 70 60 11 0
20 -4 20 -8z m-2825 -12 c-3 -5 -10 -10 -16 -10 -5 0 -9 5 -9 10 0 6 7 10 16
10 8 0 12 -4 9 -10z m224 -83 c-22 -56 -69 -112 -102 -121 -15 -4 -10 6 21 37
27 29 48 64 64 109 18 54 24 63 30 48 5 -13 0 -40 -13 -73z m3505 49 c-6 -15
-24 -23 -24 -11 0 8 24 34 28 30 1 -1 0 -10 -4 -19z m-184 4 c0 -5 -5 -10 -11
-10 -5 0 -7 5 -4 10 3 6 8 10 11 10 2 0 4 -4 4 -10z m-3506 -38 c-7 -15 -14
-37 -14 -49 0 -12 -3 -24 -7 -26 -12 -7 -3 86 9 100 18 22 27 4 12 -25z m3523
-17 c2 -16 8 -36 14 -46 13 -25 11 -36 -6 -43 -8 -3 -14 -2 -13 2 1 4 -2 15
-7 25 -4 9 -5 33 -3 52 2 19 0 37 -4 39 -5 3 -3 3 3 2 7 -1 14 -15 16 -31z
m-3602 -63 c-9 -9 -26 41 -19 56 5 13 9 8 15 -18 4 -19 6 -36 4 -38z m2693
-19 c30 -8 10 -23 -32 -23 -24 0 -27 2 -16 15 14 17 16 17 48 8z m-197 -48
c-24 -14 -49 -24 -55 -22 -6 3 1 10 17 17 15 7 27 17 27 22 0 4 12 8 28 8 25
0 24 -2 -17 -25z m642 -2 c-7 -2 -19 -2 -25 0 -7 3 -2 5 12 5 14 0 19 -2 13
-5z m717 -138 c0 -18 -49 -129 -50 -112 0 4 7 34 17 67 13 48 14 65 4 87 l-12
28 21 -25 c11 -14 20 -34 20 -45z m-1310 -354 c0 -37 3 -97 6 -132 4 -35 3
-60 -2 -56 -10 10 -22 257 -11 257 4 0 7 -31 7 -69z m1170 -232 c0 -11 -27
-12 -34 0 -3 4 -3 11 0 14 8 8 34 -3 34 -14z m-1250 -136 c-1 -5 -12 -21 -26
-38 -22 -25 -24 -26 -14 -6 18 36 40 60 40 44z m15 -243 c3 -5 1 -10 -4 -10
-6 0 -11 5 -11 10 0 6 2 10 4 10 3 0 8 -4 11 -10z m185 -136 c-7 -29 -10 -77
-7 -113 4 -34 2 -59 -2 -56 -5 3 -11 -2 -15 -10 -3 -8 -10 -15 -17 -15 -6 0
-9 7 -5 15 3 8 -2 21 -10 30 -9 8 -11 15 -5 15 6 0 11 12 11 28 0 42 54 212
59 182 1 -14 -2 -48 -9 -76z m97 44 c-3 -7 -5 -2 -5 12 0 14 2 19 5 13 2 -7 2
-19 0 -25z m-24 -62 c-10 -14 -22 -26 -27 -26 -5 0 0 10 12 23 12 13 22 30 23
38 0 9 2 10 6 2 2 -7 -4 -24 -14 -37z m-237 -38 l-6 -53 20 24 c11 13 20 29
20 36 0 7 7 18 15 25 8 7 15 8 15 2 0 -20 -31 -83 -51 -103 -25 -25 -49 -80
-49 -112 0 -33 -20 -51 -35 -30 -9 13 -8 33 8 95 11 43 17 81 14 84 -6 6 -69
-25 -78 -38 -4 -7 -9 -6 -13 0 -8 13 2 22 67 64 27 17 51 37 54 45 3 7 10 13
15 13 7 0 8 -19 4 -52z m34 42 c0 -5 -2 -10 -4 -10 -3 0 -8 5 -11 10 -3 6 -1
10 4 10 6 0 11 -4 11 -10z m-1224 -128 c14 -13 29 -20 34 -17 13 8 50 -68 41
-83 -15 -25 -121 104 -121 145 1 16 2 16 12 -2 6 -11 21 -30 34 -43z m1057
-51 c-3 -11 -11 -22 -18 -25 -10 -3 -10 2 -2 24 12 31 28 32 20 1z m227 19 c0
-5 -5 -10 -11 -10 -5 0 -7 5 -4 10 3 6 8 10 11 10 2 0 4 -4 4 -10z m100 -31
c0 -10 -4 -19 -10 -19 -5 0 -10 12 -10 26 0 14 4 23 10 19 6 -3 10 -15 10 -26z
m-690 -15 c0 -8 -4 -12 -10 -9 -5 3 -10 10 -10 16 0 5 5 9 10 9 6 0 10 -7 10
-16z m347 -37 c-17 -26 -71 -41 -96 -27 -9 5 -1 10 23 14 21 4 46 16 57 27 26
26 36 17 16 -14z m-1098 -11 c-3 -3 -11 5 -18 17 -13 21 -12 21 5 5 10 -10 16
-20 13 -22z m916 -38 c3 -7 1 -26 -4 -43 -8 -30 -8 -29 -12 13 -4 39 6 58 16
30z m-757 -106 c7 -20 6 -31 -4 -40 -8 -7 -14 -9 -14 -5 0 4 -5 1 -10 -7 -6
-9 -10 -10 -10 -3 0 21 12 43 21 37 5 -3 5 6 -1 20 -5 14 -6 26 -1 26 5 0 13
-12 19 -28z m622 -4 c0 -7 -5 -20 -10 -28 -8 -12 -10 -9 -10 13 0 15 5 27 10
27 6 0 10 -6 10 -12z m270 -51 c0 -4 -5 -5 -11 -1 -9 5 -10 -1 -5 -19 5 -20 2
-29 -13 -36 -17 -9 -19 -6 -24 27 -5 47 7 66 34 49 10 -6 19 -15 19 -20z
m-775 -91 c6 -4 1 -4 -10 2 -11 6 -29 21 -40 34 -19 22 -19 22 10 -2 17 -14
35 -29 40 -34z m-1190 15 c3 -6 -3 -9 -14 -8 -11 0 -17 5 -15 9 7 11 22 10 29
-1z m2163 -3 c-2 -6 -10 -14 -16 -16 -7 -2 -10 2 -6 12 7 18 28 22 22 4z
m-1183 -16 c-3 -3 -11 0 -18 7 -9 10 -8 11 6 5 10 -3 15 -9 12 -12z m275 -52
c0 -5 -5 -10 -11 -10 -5 0 -7 5 -4 10 3 6 8 10 11 10 2 0 4 -4 4 -10z m-39
-48 c-11 -9 -29 -28 -40 -42 -11 -14 -20 -20 -21 -15 0 17 61 86 71 79 5 -3 1
-13 -10 -22z m177 -389 c-9 -2 -18 -11 -20 -18 -2 -10 -7 -12 -18 -5 -13 9
-13 11 0 20 8 5 24 9 35 9 16 -1 17 -2 3 -6z m42 -23 c0 -5 -4 -10 -10 -10 -5
0 -10 5 -10 10 0 6 5 10 10 10 6 0 10 -4 10 -10z m-84 -57 c11 -15 15 -15 23
-4 10 16 51 6 51 -14 0 -19 -42 -26 -66 -10 -20 13 -21 12 -18 -19 l2 -34 -29
15 c-28 14 -39 33 -19 33 6 0 16 11 22 25 13 30 17 30 34 8z m-1451 -42 c-3
-12 -10 -21 -15 -21 -5 0 -4 11 2 25 13 29 23 26 13 -4z m1575 8 c0 -5 -4 -9
-10 -9 -5 0 -10 5 -10 11 0 5 -5 7 -12 3 -7 -4 -8 -3 -4 4 7 12 36 5 36 -9z
m-1596 -73 c-3 -9 -10 -16 -15 -16 -5 0 -4 9 3 20 14 22 21 20 12 -4z m-14
-190 c0 -3 -4 -8 -10 -11 -5 -3 -10 -1 -10 4 0 6 5 11 10 11 6 0 10 -2 10 -4z
m48 -966 c-14 -22 -24 -19 -15 5 4 8 11 15 17 15 6 0 6 -7 -2 -20z m962 -12
c-27 -103 -32 -118 -40 -118 -13 0 -13 1 5 43 8 20 15 47 15 60 0 18 16 47 26
47 1 0 -2 -15 -6 -32z m-1188 -420 c-15 -15 -26 -4 -18 18 5 13 9 15 18 6 9
-9 9 -15 0 -24z m-42 2 c0 -5 -2 -10 -4 -10 -3 0 -8 5 -11 10 -3 6 -1 10 4 10
6 0 11 -4 11 -10z m-100 -40 c0 -13 -20 -13 -40 0 -12 8 -9 10 13 10 15 0 27
-4 27 -10z m-100 -124 c0 -2 -9 -2 -20 1 -11 3 -20 9 -20 15 0 5 9 4 20 -2 11
-6 20 -12 20 -14z m157 -118 c-3 -8 -6 -5 -6 6 -1 11 2 17 5 13 3 -3 4 -12 1
-19z m898 13 c-6 -5 -20 -12 -32 -16 -18 -5 -22 -3 -17 9 3 9 18 16 32 16 16
0 22 -4 17 -9z m2582 -30 c13 -7 8 -8 -22 -3 -86 15 -197 8 -255 -16 -61 -26
-57 -14 5 18 35 18 53 20 147 16 59 -2 115 -9 125 -15z m-634 -18 c-7 -2 -21
-2 -30 0 -10 3 -4 5 12 5 17 0 24 -2 18 -5z m134 -115 c-3 -8 -6 -5 -6 6 -1
11 2 17 5 13 3 -3 4 -12 1 -19z m-2088 -169 c7 1 10 -2 6 -8 -3 -6 -1 -11 5
-11 6 0 8 -4 5 -10 -3 -5 -21 -10 -39 -10 -37 0 -70 29 -60 53 5 15 9 15 37 0
18 -10 38 -16 46 -14z m-506 -136 c-7 -2 -19 -2 -25 0 -7 3 -2 5 12 5 14 0 19
-2 13 -5z m123 -121 c-17 -16 -18 -16 -5 5 7 12 15 20 18 17 3 -2 -3 -12 -13
-22z m24 -82 c13 -9 13 -10 0 -10 -8 0 -22 5 -30 10 -13 9 -13 10 0 10 8 0 22
-5 30 -10z"/>
<path d="M1870 6926 c-25 -54 -44 -58 -112 -25 -23 12 -50 25 -58 29 -15 7
-100 -25 -100 -38 0 -4 14 -15 31 -24 17 -10 28 -22 24 -28 -3 -5 6 -12 21
-16 16 -4 29 -2 34 6 6 10 9 9 16 -1 4 -8 3 -14 -5 -17 -9 -3 -8 -7 2 -16 8
-6 26 -41 39 -77 l25 -66 -32 -21 c-17 -12 -37 -22 -43 -22 -7 0 -12 -11 -12
-24 0 -18 7 -26 27 -31 15 -3 47 -15 71 -26 24 -11 53 -19 64 -17 14 2 23 -4
29 -20 6 -15 5 -21 -1 -17 -6 3 -10 0 -10 -7 0 -7 16 -24 34 -38 22 -16 31
-30 28 -42 -6 -26 -31 -22 -44 7 -10 21 -28 31 -42 23 -2 -2 -13 5 -25 16 -20
18 -21 18 -30 -8 -14 -35 -18 -33 -13 9 3 21 0 35 -7 35 -6 0 -11 -7 -11 -14
0 -8 -12 -21 -27 -28 -23 -11 -28 -20 -27 -46 1 -22 -3 -32 -12 -32 -17 0 -14
-67 5 -113 13 -35 14 -47 1 -27 -7 11 -10 11 -10 2 0 -7 -4 -11 -8 -8 -5 3 -6
-34 -4 -81 3 -61 1 -87 -8 -93 -6 -4 -11 -18 -11 -31 1 -13 3 -70 5 -127 3
-115 11 -132 48 -108 20 13 29 14 51 3 29 -13 33 -42 6 -42 -9 0 -23 -6 -31
-12 -26 -22 -59 -101 -62 -148 -2 -42 1 -49 46 -95 43 -45 61 -69 40 -56 -4 2
-19 -5 -32 -16 -14 -11 -20 -17 -13 -14 12 6 43 -29 43 -49 0 -5 -5 -3 -10 5
-8 13 -10 12 -10 -4 0 -18 20 -19 60 -2 10 4 25 -3 40 -16 l24 -22 -33 -7
c-18 -4 -39 -16 -47 -28 -9 -12 -19 -19 -24 -16 -4 3 -13 -2 -20 -10 -10 -11
-10 -18 -1 -29 9 -11 9 -15 0 -18 -9 -3 -9 -9 0 -25 6 -12 11 -31 11 -42 0
-12 5 -21 11 -21 5 0 7 -5 4 -11 -7 -11 32 -55 41 -46 3 2 -2 37 -10 78 -9 40
-14 74 -12 76 7 7 25 -59 32 -114 4 -29 9 -53 13 -53 4 0 17 7 29 16 19 13 22
13 22 0 0 -30 -24 -66 -61 -92 -40 -27 -59 -66 -59 -118 0 -18 -6 -38 -12 -45
-11 -11 -2 -12 46 -9 68 6 97 29 89 73 -7 36 -29 30 -52 -13 -7 -13 -15 -22
-17 -19 -7 7 18 57 28 57 4 0 8 6 8 14 0 24 34 76 46 72 6 -3 16 0 22 6 6 6 4
-14 -4 -47 -17 -66 -13 -89 15 -80 17 5 18 1 13 -41 -4 -41 -3 -46 12 -41 11
5 16 1 17 -13 2 -28 3 -33 14 -51 12 -20 55 -35 55 -20 0 6 7 11 15 11 33 0
38 105 6 125 -21 12 -12 32 13 28 19 -4 25 1 35 28 16 45 14 48 -12 15 -20
-24 -24 -26 -35 -13 -10 11 -10 21 -1 40 10 22 9 31 -7 53 -10 15 -23 34 -29
43 -5 9 -16 20 -23 24 -9 6 -9 13 -1 28 10 19 12 19 28 5 10 -9 23 -16 29 -16
7 0 12 -5 12 -11 0 -5 5 -7 11 -3 6 3 15 0 20 -7 6 -9 9 0 9 27 0 22 -5 45
-12 52 -7 7 -9 12 -6 12 4 0 -4 25 -18 55 -13 31 -24 74 -24 96 0 32 -4 42
-20 46 -23 6 -26 21 -6 29 17 7 30 50 19 67 -4 6 -6 27 -4 45 2 26 -4 39 -29
62 -18 17 -37 30 -42 30 -25 0 -76 33 -86 55 -7 14 -8 25 -4 25 7 0 42 73 42
89 0 5 -7 11 -15 15 -10 3 -15 -1 -15 -14 0 -10 -4 -22 -10 -25 -5 -3 -10 -14
-10 -23 0 -9 -6 -28 -13 -42 -18 -33 -28 -100 -17 -100 5 0 6 -8 3 -17 -5 -14
-8 -14 -11 -2 -3 7 -8 16 -12 19 -4 3 -11 23 -14 46 -7 37 -4 45 34 95 43 56
43 58 23 149 -5 24 -5 25 10 5 l16 -20 2 20 c1 14 3 11 8 -8 l6 -29 27 21 c17
14 25 27 21 38 -4 9 1 19 10 25 10 5 17 16 17 25 0 9 23 38 51 65 l52 49 -38
39 c-30 30 -34 39 -20 42 15 3 14 7 -8 40 -20 29 -22 38 -11 42 19 7 18 32 -4
48 -22 16 -52 63 -52 80 0 7 11 21 24 31 13 10 27 30 31 45 4 15 12 34 20 42
16 19 37 142 29 166 -6 16 -5 17 7 6 7 -7 15 -40 17 -77 3 -45 8 -65 18 -65
21 0 27 19 15 48 -14 36 -19 67 -20 125 -1 46 -2 48 -28 45 -36 -4 -42 20 -6
27 40 9 58 21 56 36 -7 45 -49 149 -60 149 -13 0 -16 -9 -32 -107 -7 -43 -19
-74 -38 -97 -15 -19 -29 -34 -30 -32 -2 1 4 29 13 62 27 104 28 140 5 179 -12
20 -21 43 -21 51 0 18 -15 18 -45 -2 -14 -9 -25 -12 -25 -6 0 6 6 12 13 15 9
3 9 8 1 16 -9 10 -17 1 -34 -33z m-70 -546 c0 -5 -4 -10 -10 -10 -5 0 -10 5
-10 10 0 6 5 10 10 10 6 0 10 -4 10 -10z m10 -80 c0 -5 -4 -10 -10 -10 -5 0
-10 5 -10 10 0 6 5 10 10 10 6 0 10 -4 10 -10z m-46 -96 c3 -8 2 -12 -4 -9 -6
3 -10 10 -10 16 0 14 7 11 14 -7z m146 -959 c0 -8 -7 -15 -15 -15 -16 0 -20
12 -8 23 11 12 23 8 23 -8z m22 -140 c-2 -14 -8 -22 -13 -19 -13 8 -11 32 4
37 6 3 13 6 13 6 1 1 -1 -10 -4 -24z m102 -251 c5 -21 2 -34 -7 -42 -12 -10
-13 -8 -9 13 3 17 -1 30 -13 39 -12 9 -15 19 -10 35 7 22 8 22 20 4 7 -10 15
-32 19 -49z m26 16 c0 -5 -4 -10 -10 -10 -5 0 -10 5 -10 10 0 6 5 10 10 10 6
0 10 -4 10 -10z"/>
<path d="M4288 6928 c17 -17 -10 -57 -43 -61 l-30 -3 29 -12 c24 -10 32 -10
45 2 53 49 61 55 61 45 0 -7 -10 -20 -22 -30 l-21 -19 31 0 c17 0 37 7 46 15
8 8 19 15 25 15 14 0 14 37 0 45 -6 4 -13 -3 -16 -15 -5 -19 -8 -20 -17 -9 -6
8 -30 19 -54 25 -25 7 -39 7 -34 2z"/>
<path d="M1135 6900 c10 -11 20 -18 23 -16 5 6 -23 36 -34 36 -4 0 1 -9 11
-20z"/>
<path d="M4469 6863 c-1 -5 -1 -10 -1 -14 0 -3 -9 -11 -20 -18 -18 -11 -20
-11 -15 3 4 9 2 16 -4 16 -18 0 -104 -48 -123 -69 -18 -20 -18 -22 -1 -41 23
-25 33 -25 62 2 13 12 23 17 23 11 0 -6 -7 -16 -15 -23 -10 -8 -12 -17 -7 -22
6 -6 5 -30 -3 -64 l-12 -54 39 -31 c35 -29 47 -52 16 -33 -7 4 -29 10 -49 11
-31 3 -39 0 -44 -18 -4 -12 -3 -24 1 -28 5 -3 17 -21 26 -39 14 -27 15 -32 3
-32 -8 0 -15 5 -15 10 0 18 -18 10 -23 -11 -3 -12 0 -22 9 -26 8 -3 14 -19 14
-39 0 -19 6 -43 12 -54 10 -16 10 -24 0 -40 -6 -11 -12 -28 -12 -37 -1 -17 -1
-17 -14 0 -13 16 -14 16 -21 -10 -10 -36 -7 -55 11 -69 11 -9 44 -83 44 -100
0 -2 -12 -10 -27 -18 l-28 -14 37 -21 c25 -15 38 -31 42 -53 10 -48 7 -123 -5
-135 -7 -7 -7 -17 -1 -29 6 -11 16 -39 22 -64 11 -38 14 -42 21 -25 6 13 7 4
3 -25 -8 -56 -12 -60 -31 -35 -13 19 -14 17 -9 -20 3 -22 3 -34 0 -27 -3 6
-11 12 -18 12 -15 0 -26 -64 -26 -151 0 -59 6 -67 55 -74 6 -1 12 -3 15 -5 16
-9 71 -6 113 6 45 12 48 12 61 -9 30 -47 31 -91 1 -51 -11 16 -12 16 -18 0 -4
-10 -3 -15 3 -11 15 9 12 -4 -5 -21 -13 -13 -15 -12 -21 11 -3 14 -11 25 -16
25 -6 0 -7 -11 -4 -25 4 -14 2 -25 -4 -25 -5 0 -10 8 -10 19 0 24 -25 47 -35
31 -4 -7 -18 -9 -30 -6 -13 3 -27 1 -30 -4 -4 -6 -10 -8 -15 -5 -17 10 -31
-24 -24 -59 4 -24 2 -36 -5 -36 -6 0 -11 11 -11 24 0 29 -19 44 -31 25 -12
-20 -11 -29 4 -27 6 2 12 -5 12 -15 0 -10 8 -23 18 -28 9 -6 17 -18 17 -28 0
-14 6 -18 30 -15 35 4 46 -10 31 -39 -6 -12 -15 -35 -21 -50 -8 -22 -14 -27
-30 -22 -16 5 -20 2 -20 -19 0 -14 5 -26 11 -26 6 0 8 -8 4 -19 -7 -24 2 -48
20 -48 8 0 15 4 15 9 0 4 4 8 9 8 5 0 3 -23 -4 -50 -15 -58 -7 -148 19 -198 9
-17 16 -40 16 -51 0 -11 4 -22 9 -26 15 -9 22 11 12 37 -6 16 -5 29 5 42 8 11
12 35 10 57 -2 22 -1 37 4 34 4 -3 11 21 15 53 4 31 12 63 17 70 18 21 0 27
-22 7 -11 -10 -22 -16 -25 -13 -8 8 35 58 51 58 8 0 14 4 14 9 0 5 9 13 20 16
11 3 20 10 20 15 0 4 16 24 36 44 30 30 34 38 24 56 -6 11 -9 24 -7 28 3 4 1
29 -3 55 -4 26 -3 50 2 53 5 3 4 12 -3 20 -9 11 -8 15 4 20 24 9 28 33 11 59
-9 13 -13 28 -10 34 3 5 1 22 -5 38 -19 50 -19 63 4 74 47 26 52 42 50 172 -1
67 -4 138 -6 157 -3 19 -8 62 -12 96 -6 47 -4 67 9 92 19 37 21 99 4 104 -9 3
-8 12 5 31 10 15 13 27 7 27 -5 0 -10 5 -10 10 0 6 8 10 19 10 27 0 51 86 28
101 -5 4 -15 55 -22 115 -13 117 -31 172 -64 192 -12 7 -21 21 -21 31 0 10
-11 29 -25 42 -32 31 -34 63 -4 54 14 -5 19 -3 15 3 -3 6 -3 12 1 15 5 2 2 2
-4 1 -7 -2 -23 1 -35 6 -19 7 -20 9 -4 9 15 1 16 4 6 16 -7 8 -10 28 -8 45 5
36 -5 38 -37 5 l-25 -24 0 44 c0 33 -4 45 -15 45 -8 0 -16 -3 -16 -7z m1 -42
c0 -14 -45 -61 -59 -61 -17 0 -14 9 17 40 28 30 42 37 42 21z m64 -86 c4 -11
0 -12 -16 -6 -12 4 -24 13 -26 19 -5 16 36 3 42 -13z m-20 -160 c33 -18 34
-20 19 -37 -27 -30 -49 -22 -72 25 -12 24 -21 52 -21 62 0 15 3 14 19 -7 11
-13 35 -33 55 -43z m121 -54 c4 -44 3 -44 -11 -16 -17 32 -19 68 -3 63 6 -2
13 -23 14 -47z m23 -92 c-3 -8 -7 -3 -11 10 -4 17 -3 21 5 13 5 -5 8 -16 6
-23z m-219 -143 c-3 -3 -11 5 -18 17 -13 21 -12 21 5 5 10 -10 16 -20 13 -22z
m-132 -118 c-3 -8 -6 -5 -6 6 -1 11 2 17 5 13 3 -3 4 -12 1 -19z m153 -903 c0
-9 -6 -12 -15 -9 -8 4 -15 10 -15 15 0 5 7 9 15 9 8 0 15 -7 15 -15z"/>
<path d="M3857 6834 c-8 -14 8 -37 22 -33 8 3 8 10 -2 23 -8 11 -17 15 -20 10z"/>
<path d="M4600 6804 c-30 -11 -32 -13 -10 -13 14 -1 32 3 40 9 24 15 8 17 -30
4z"/>
<path d="M4895 6708 c-19 -86 -23 -114 -18 -144 6 -37 10 -39 77 -49 l47 -7
-4 28 c-2 16 -6 36 -9 44 -4 8 -12 38 -19 65 -7 28 -15 42 -17 33 -6 -30 -21
-20 -28 17 -7 40 -21 46 -29 13z"/>
<path d="M4801 6704 c0 -11 3 -14 6 -6 3 7 2 16 -1 19 -3 4 -6 -2 -5 -13z"/>
<path d="M4336 6694 c-4 -11 -13 -14 -27 -11 -25 7 -36 -17 -19 -38 18 -22 50
-19 50 4 0 11 5 23 10 26 12 8 13 35 1 35 -5 0 -12 -7 -15 -16z"/>
<path d="M3972 6681 c2 -7 7 -12 11 -12 12 1 9 15 -3 20 -7 2 -11 -2 -8 -8z"/>
<path d="M4676 6604 c-4 -9 -4 -19 -1 -22 7 -8 35 19 29 29 -8 14 -21 11 -28
-7z"/>
<path d="M2025 6360 c-3 -5 -1 -10 4 -10 6 0 11 5 11 10 0 6 -2 10 -4 10 -3 0
-8 -4 -11 -10z"/>
<path d="M4309 6344 c-3 -22 3 -60 11 -68 6 -5 7 7 3 30 -6 39 -12 55 -14 38z"/>
<path d="M2261 6171 c-8 -5 -9 -10 -3 -12 6 -2 15 -23 20 -46 7 -32 6 -49 -6
-74 -12 -24 -13 -34 -4 -37 7 -2 12 -8 12 -13 0 -6 9 -19 19 -30 16 -17 26
-19 65 -14 25 4 44 11 41 15 -3 4 3 7 13 6 11 -1 16 6 16 17 -1 10 1 16 4 13
11 -11 30 15 25 34 -7 26 -19 25 -33 0 -10 -19 -13 -19 -40 -5 -34 18 -34 18
-18 44 17 27 -7 97 -36 105 -30 8 -59 7 -75 -3z"/>
<path d="M4125 6010 c-3 -5 -1 -10 4 -10 6 0 11 5 11 10 0 6 -2 10 -4 10 -3 0
-8 -4 -11 -10z"/>
<path d="M2440 5915 c-17 -21 -8 -28 15 -11 11 8 14 15 8 19 -6 4 -16 0 -23
-8z"/>
<path d="M4025 5570 c-16 -17 -43 -34 -59 -38 -33 -9 -39 -23 -49 -112 -4 -44
-3 -50 5 -32 13 26 28 29 28 5 0 -12 5 -9 15 11 8 15 15 35 15 42 0 8 7 14 15
14 8 0 15 -9 15 -20 0 -11 -3 -20 -8 -20 -7 0 -14 -15 -42 -88 -7 -18 -30 -58
-52 -88 -21 -31 -42 -69 -45 -85 -3 -16 -10 -29 -15 -29 -6 0 -6 -6 1 -14 18
-21 51 -8 51 20 0 13 4 24 8 24 5 0 16 27 26 61 11 33 29 72 41 85 23 25 61
156 50 173 -3 5 -1 12 5 16 5 3 10 1 10 -6 0 -9 3 -10 10 -3 11 11 20 114 10
114 -3 0 -19 -14 -35 -30z"/>
<path d="M3877 5453 c-3 -16 -3 -30 -1 -33 7 -7 24 23 24 43 0 27 -17 20 -23
-10z"/>
<path d="M3915 5351 c3 -5 1 -12 -4 -16 -6 -3 -7 -13 -4 -21 5 -13 7 -13 14
-2 12 18 11 48 -2 48 -5 0 -8 -4 -4 -9z"/>
<path d="M4530 5345 c0 -8 7 -15 16 -15 14 0 14 3 4 15 -7 8 -14 15 -16 15 -2
0 -4 -7 -4 -15z"/>
<path d="M4313 5072 c-7 -28 -7 -41 3 -50 16 -15 21 -6 30 46 5 34 4 42 -9 42
-9 0 -18 -15 -24 -38z"/>
<path d="M4261 5036 c-8 -10 -9 -16 -1 -21 5 -3 13 1 16 10 9 22 -1 29 -15 11z"/>
<path d="M3435 4979 c-11 -16 -1 -19 13 -3 7 8 8 14 3 14 -5 0 -13 -5 -16 -11z"/>
<path d="M3063 4973 c9 -2 23 -2 30 0 6 3 -1 5 -18 5 -16 0 -22 -2 -12 -5z"/>
<path d="M3008 4963 c7 -3 16 -2 19 1 4 3 -2 6 -13 5 -11 0 -14 -3 -6 -6z"/>
<path d="M3212 4859 c-13 -5 -21 -13 -17 -18 3 -6 -3 -14 -12 -20 -20 -11 -18
-16 15 -25 13 -5 22 -3 22 3 0 6 -5 11 -12 11 -6 0 -8 3 -5 6 10 11 81 11 95
1 23 -18 24 1 1 27 -23 27 -48 31 -87 15z"/>
<path d="M3357 4853 c-8 -14 1 -62 15 -76 11 -12 17 -11 43 7 16 11 32 22 34
23 2 1 -2 9 -8 17 -7 8 -10 20 -6 26 4 6 -9 10 -34 10 -22 0 -42 -3 -44 -7z
m51 -35 c-6 -18 -28 -21 -28 -4 0 9 7 16 16 16 9 0 14 -5 12 -12z"/>
<path d="M3455 4849 c-11 -16 -1 -19 13 -3 7 8 8 14 3 14 -5 0 -13 -5 -16 -11z"/>
<path d="M3740 4808 c0 -16 5 -28 10 -28 13 0 13 20 0 40 -8 12 -10 9 -10 -12z"/>
<path d="M1879 4763 c-8 -9 -38 -27 -66 -39 -48 -21 -70 -44 -43 -44 16 0 11
-19 -11 -41 -26 -26 -23 -75 8 -109 22 -23 23 -24 36 -6 10 13 21 17 37 13 24
-6 59 7 72 27 4 6 8 23 8 37 0 14 9 34 20 44 22 20 27 55 8 55 -7 0 -25 -12
-40 -27 -30 -29 -39 -14 -12 22 13 18 13 20 -3 27 -15 6 -16 7 -2 7 11 1 17
10 17 26 0 29 -10 32 -29 8z"/>
<path d="M3980 4670 c0 -19 11 -26 23 -14 8 8 -3 34 -14 34 -5 0 -9 -9 -9 -20z"/>
<path d="M2097 4622 c-20 -22 -21 -32 -6 -32 12 0 38 29 39 43 0 13 -17 7 -33
-11z"/>
<path d="M4002 4628 c-17 -17 -15 -28 3 -22 8 4 15 1 15 -5 0 -6 5 -11 10 -11
14 0 12 26 -3 39 -10 8 -17 7 -25 -1z"/>
<path d="M4940 4585 c0 -8 5 -15 10 -15 6 0 10 7 10 15 0 8 -4 15 -10 15 -5 0
-10 -7 -10 -15z"/>
<path d="M2239 4574 c-12 -14 -11 -16 5 -13 11 2 21 10 24 17 5 17 -13 15 -29
-4z"/>
<path d="M1956 4519 c-24 -40 -15 -47 12 -9 12 16 18 31 14 34 -5 3 -16 -9
-26 -25z"/>
<path d="M1984 4505 c-10 -8 -14 -14 -9 -15 15 0 40 18 34 24 -3 3 -14 -1 -25
-9z"/>
<path d="M1786 4355 c4 -8 11 -15 16 -15 6 0 5 6 -2 15 -7 8 -14 15 -16 15 -2
0 -1 -7 2 -15z"/>
<path d="M4338 4306 c-13 -9 -18 -28 -19 -62 0 -27 -4 -72 -8 -101 -5 -34 -1
-97 10 -180 10 -70 22 -168 29 -218 20 -159 74 -284 116 -268 8 3 14 0 14 -5
0 -6 -9 -13 -20 -17 -11 -3 -25 -18 -32 -32 -7 -15 -22 -28 -32 -29 -28 -4
-37 -23 -34 -76 2 -56 -3 -64 -31 -48 -17 9 -21 8 -21 -5 0 -8 -7 -15 -16 -15
-14 0 -16 -8 -11 -42 3 -23 13 -47 21 -54 14 -10 14 -13 -4 -29 -25 -22 -25
-34 -2 -51 13 -10 14 -15 5 -25 -10 -10 -7 -15 13 -26 15 -7 30 -10 35 -7 5 3
9 2 9 -3 0 -4 -19 -17 -42 -28 -31 -15 -37 -21 -22 -23 10 -2 24 -9 29 -16 6
-7 17 -13 25 -14 136 -14 265 -22 276 -18 9 3 12 11 9 17 -4 6 3 20 15 31 20
19 21 27 15 90 -3 39 -12 77 -20 84 -19 19 -12 70 9 66 9 -2 16 3 17 10 6 93
8 116 13 134 2 12 0 40 -6 62 -9 37 -11 39 -34 28 -13 -6 -24 -19 -24 -28 0
-10 -6 -18 -14 -18 -17 0 -38 24 -29 34 11 11 33 79 33 106 l1 25 10 -24 c6
-15 6 -28 -1 -36 -7 -9 -6 -16 5 -25 13 -10 15 -9 16 11 0 13 2 42 5 64 3 22
7 56 9 75 2 19 5 44 7 55 3 31 -13 128 -24 142 -6 7 -14 11 -18 8 -4 -3 -13 2
-20 10 -10 12 -9 16 4 21 10 4 16 18 16 35 0 21 -4 27 -15 23 -8 -4 -15 -2
-15 4 0 6 6 12 13 15 9 4 9 7 0 18 -10 10 -9 17 8 35 l21 22 -21 7 c-11 3 -25
4 -30 1 -15 -10 -46 37 -102 152 -54 111 -69 132 -91 132 -8 0 -18 4 -23 9 -6
6 -17 5 -27 -3z m302 -506 c0 -5 -7 -10 -15 -10 -8 0 -15 5 -15 10 0 6 7 10
15 10 8 0 15 -4 15 -10z m-3 -92 c-3 -8 -6 -5 -6 6 -1 11 2 17 5 13 3 -3 4
-12 1 -19z m-100 -260 c-3 -8 -6 -5 -6 6 -1 11 2 17 5 13 3 -3 4 -12 1 -19z
m-27 -47 c-6 -12 -15 -21 -20 -21 -14 0 -12 7 7 30 21 24 29 19 13 -9z m-54
-83 c-19 -26 -22 -7 -4 25 7 13 13 17 15 10 3 -7 -3 -23 -11 -35z"/>
<path d="M4446 4275 c19 -25 30 -33 37 -26 8 8 3 19 -13 36 -37 39 -56 31 -24
-10z"/>
<path d="M1815 4193 c4 -10 19 -58 32 -108 33 -118 50 -129 118 -75 20 16 59
40 85 52 53 25 61 39 53 98 -4 30 -10 40 -20 36 -8 -4 -19 -6 -23 -6 -5 0 -29
-19 -54 -42 -24 -24 -56 -52 -70 -62 -16 -11 -26 -28 -26 -43 0 -34 -16 -20
-24 20 -6 34 -63 147 -73 147 -3 0 -2 -8 2 -17z"/>
<path d="M4630 4145 c-12 -14 -12 -18 1 -25 10 -7 15 -5 17 5 6 28 -3 38 -18
20z"/>
<path d="M1530 3798 c0 -32 42 -128 48 -109 5 16 -16 88 -35 116 -12 19 -13
18 -13 -7z"/>
<path d="M1430 3777 c0 -7 6 -21 13 -32 15 -19 14 -21 8 38 -2 13 -21 8 -21
-6z"/>
<path d="M1776 3652 c-2 -4 -1 -14 5 -22 7 -12 9 -10 9 8 0 23 -5 28 -14 14z"/>
<path d="M1742 3478 c-1 -18 -8 -64 -17 -103 -19 -81 -35 -197 -29 -207 3 -4
-3 -24 -12 -45 -20 -46 -34 -112 -27 -130 3 -8 22 -13 52 -13 25 0 58 -6 73
-14 24 -13 31 -12 71 8 24 13 53 25 64 28 17 5 21 15 22 64 0 33 6 84 12 114
6 31 9 69 7 85 -3 26 -8 30 -38 33 -19 2 -40 8 -47 14 -18 15 -65 117 -72 158
-5 28 -11 36 -32 38 -24 3 -27 0 -27 -30z"/>
<path d="M2240 3219 c0 -5 5 -7 10 -4 6 3 10 8 10 11 0 2 -4 4 -10 4 -5 0 -10
-5 -10 -11z"/>
<path d="M4198 2833 c-9 -2 -19 -11 -22 -19 -4 -10 -2 -14 6 -10 7 3 21 9 31
12 9 4 17 10 17 15 0 9 -4 10 -32 2z"/>
<path d="M4060 2814 c0 -8 5 -12 10 -9 6 3 10 10 10 16 0 5 -4 9 -10 9 -5 0
-10 -7 -10 -16z"/>
<path d="M4120 2814 c0 -14 3 -15 18 -3 9 7 19 15 21 16 2 2 -5 3 -17 3 -14 0
-22 -6 -22 -16z"/>
</g>
</svg>
